<svg width="63" height="10" viewBox="0 0 63 10" fill="none" xmlns="http://www.w3.org/2000/svg">
<g id="Group 55">
<path id="Vector" d="M5.3481 8.02972L7.94185 9.46211C8.41685 9.72462 8.9981 9.33656 8.8731 8.84578L8.1856 6.15219L10.4793 4.33745C10.8981 4.00645 10.6731 3.37871 10.1231 3.33876L7.10435 3.10479L5.9231 0.559576C5.7106 0.0973289 4.9856 0.0973289 4.7731 0.559576L3.59185 3.09908L0.573098 3.33306C0.0230984 3.373 -0.201902 4.00075 0.216848 4.33174L2.5106 6.14649L1.8231 8.84007C1.6981 9.33085 2.27935 9.71891 2.75435 9.4564L5.3481 8.02972Z" fill="#E08734"/>
<path id="Vector_2" d="M18.1962 7.81682L20.7899 9.24922C21.2649 9.51173 21.8462 9.12367 21.7212 8.63289L21.0337 5.9393L23.3274 4.12456C23.7462 3.79356 23.5212 3.16582 22.9712 3.12587L19.9524 2.8919L18.7712 0.346685C18.5587 -0.115562 17.8337 -0.115562 17.6212 0.346685L16.4399 2.88619L13.4212 3.12017C12.8712 3.16011 12.6462 3.78786 13.0649 4.11885L15.3587 5.9336L14.6712 8.62718C14.5462 9.11796 15.1274 9.50602 15.6024 9.24351L18.1962 7.81682Z" fill="#E08734"/>
<path id="Vector_3" d="M31.1962 7.81682L33.7899 9.24922C34.2649 9.51173 34.8462 9.12367 34.7212 8.63289L34.0337 5.9393L36.3274 4.12456C36.7462 3.79356 36.5212 3.16582 35.9712 3.12587L32.9524 2.8919L31.7712 0.346685C31.5587 -0.115562 30.8337 -0.115562 30.6212 0.346685L29.4399 2.88619L26.4212 3.12017C25.8712 3.16011 25.6462 3.78786 26.0649 4.11885L28.3587 5.9336L27.6712 8.62718C27.5462 9.11796 28.1274 9.50602 28.6024 9.24351L31.1962 7.81682Z" fill="#E08734"/>
<path id="Vector_4" d="M44.1962 7.81682L46.7899 9.24922C47.2649 9.51173 47.8462 9.12367 47.7212 8.63289L47.0337 5.9393L49.3274 4.12456C49.7462 3.79356 49.5212 3.16582 48.9712 3.12587L45.9524 2.8919L44.7712 0.346685C44.5587 -0.115562 43.8337 -0.115562 43.6212 0.346685L42.4399 2.88619L39.4212 3.12017C38.8712 3.16011 38.6462 3.78786 39.0649 4.11885L41.3587 5.9336L40.6712 8.62718C40.5462 9.11796 41.1274 9.50602 41.6024 9.24351L44.1962 7.81682Z" fill="#E08734"/>
<path id="Vector_5" d="M57.1962 7.81682L59.7899 9.24922C60.2649 9.51173 60.8462 9.12367 60.7212 8.63289L60.0337 5.9393L62.3274 4.12456C62.7462 3.79356 62.5212 3.16582 61.9712 3.12587L58.9524 2.8919L57.7712 0.346685C57.5587 -0.115562 56.8337 -0.115562 56.6212 0.346685L55.4399 2.88619L52.4212 3.12017C51.8712 3.16011 51.6462 3.78786 52.0649 4.11885L54.3587 5.9336L53.6712 8.62718C53.5462 9.11796 54.1274 9.50602 54.6024 9.24351L57.1962 7.81682Z" fill="#E08734"/>
</g>
</svg>
